<?xml version="1.0" encoding="iso-8859-1"?>
<!-- Generator: Adobe Illustrator 19.0.0, SVG Export Plug-In . SVG Version: 6.00 Build 0)  -->
<svg version="1.1" id="Layer_1" xmlns="http://www.w3.org/2000/svg" xmlns:xlink="http://www.w3.org/1999/xlink" x="0px" y="0px"
	 viewBox="0 0 297.469 297.469" style="enable-background:new 0 0 297.469 297.469;" xml:space="preserve">
<g>
	<g>
		<g>
			<path style="fill:#4EFFBB;" d="M63.162,206.392c0,15.492,12.586,28.078,28.078,28.078s28.078-12.586,28.078-28.078
				c0-8.054-3.486-15.375-8.986-20.487l17.854-33.578c2.131,0.544,4.337,0.814,6.624,0.814c5.887,0,11.387-1.821,15.919-4.959
				l24.901,22.191c-2.867,4.376-4.532,9.605-4.532,15.222c0,15.492,12.625,28.078,28.078,28.078
				c15.492,0,28.078-12.586,28.078-28.078c0-6.197-2.014-11.889-5.421-16.538l43.221-77.262c1.394,0.231,2.867,0.349,4.337,0.349
				c15.492,0,28.078-12.586,28.078-28.078c0-15.453-12.586-28.078-28.078-28.078s-28.078,12.625-28.078,28.078
				c0,8.442,3.757,15.994,9.644,21.145l-41.517,74.28c-3.177-1.277-6.624-1.974-10.263-1.974c-4.183,0-8.171,0.968-11.775,2.633
				l-26.84-23.934c1.473-3.408,2.323-7.164,2.323-11.152c0-15.453-12.586-28.078-28.078-28.078s-28.078,12.625-28.078,28.078
				c0,7.63,3.059,14.524,7.979,19.597l-18.164,34.197c-1.704-0.349-3.486-0.544-5.304-0.544
				C75.748,178.314,63.162,190.939,63.162,206.392z"/>
			<path style="fill:#4EFFBB;" d="M294.021,263.167c0-0.039-0.078-0.078-0.078-0.156c-0.231-0.58-0.541-1.163-0.929-1.704
				c-0.078-0.117-0.153-0.192-0.231-0.31c-0.388-0.466-0.814-0.929-1.277-1.316l-26.104-20.216
				c-3.369-2.633-8.249-2.014-10.843,1.355c-2.633,3.408-2.014,8.249,1.355,10.882l8.21,6.353H53.44V49.35
				c3.291,3.988,5.887,7.086,6.428,7.823c2.44,3.369,7.125,4.222,10.572,1.899c3.564-2.362,4.532-7.164,2.17-10.729
				c-0.31-0.427-0.89-1.316-20.913-25.175c0-0.039-0.039-0.039-0.039-0.039c0-0.039-0.039-0.039-0.039-0.078
				c-0.039,0-0.078-0.039-0.078-0.078c-0.31-0.31-0.619-0.658-0.968-0.929c-0.192-0.156-0.349-0.231-0.541-0.349
				c-0.156-0.117-0.27-0.192-0.427-0.31c-0.58-0.349-1.199-0.619-1.857-0.811c-0.078,0-0.192,0-0.27-0.039
				c-0.58-0.156-1.199-0.192-1.821-0.192c-0.153,0-0.31,0-0.466,0c-0.697,0.039-1.355,0.153-2.014,0.388
				c-0.039,0.039-0.078,0-0.156,0.039s-0.156,0.078-0.231,0.117c-0.58,0.231-1.124,0.541-1.665,0.929
				c-0.078,0.039-0.156,0.117-0.231,0.156c-0.427,0.349-0.85,0.736-1.238,1.199L19.012,48.536c-2.672,3.291-2.17,8.171,1.124,10.882
				c1.433,1.163,3.177,1.743,4.881,1.743c2.245,0,4.493-0.968,6.041-2.867l6.894-8.481V265.8c0,4.297,3.447,7.745,7.744,7.745
				h219.59l-8.637,7.167c-3.291,2.711-3.757,7.591-1.007,10.882c1.512,1.857,3.717,2.828,5.965,2.828
				c1.743,0,3.486-0.58,4.956-1.782l25.136-20.874c0.039-0.039,0.078-0.117,0.156-0.192c0.349-0.31,0.697-0.619,1.007-1.007
				c0.078-0.117,0.153-0.27,0.231-0.388c0.117-0.153,0.192-0.31,0.27-0.466c0.349-0.58,0.658-1.163,0.814-1.821l0.039-0.039
				c0.192-0.697,0.231-1.394,0.231-2.092c0-0.156,0-0.31,0-0.466c-0.039-0.697-0.192-1.355-0.427-2.053
				C294.021,263.245,294.021,263.206,294.021,263.167z"/>
		</g>
		<g>
			<g id="XMLID_7_">
				<g>
					<path style="fill:#302C58;" d="M252.095,34.186c6.933,0,12.586,5.656,12.586,12.586c0,6.972-5.656,12.586-12.586,12.586
						c-6.933,0-12.586-5.617-12.586-12.586C239.509,39.839,245.162,34.186,252.095,34.186z"/>
					<path style="fill:#302C58;" d="M181.881,155.715c6.972,0,12.586,5.656,12.586,12.586c0,6.933-5.617,12.586-12.586,12.586
						c-6.933,0-12.586-5.656-12.586-12.586C169.295,161.368,174.947,155.715,181.881,155.715z"/>
					<path style="fill:#302C58;" d="M117.514,95.183c6.933,0,12.586,5.653,12.586,12.586c0,6.972-5.656,12.586-12.586,12.586
						c-6.933,0-12.586-5.617-12.586-12.586C104.928,100.836,110.581,95.183,117.514,95.183z"/>
					<path style="fill:#302C58;" d="M73.944,176.511c6.933,0,12.586,5.656,12.586,12.586c0,6.972-5.656,12.586-12.586,12.586
						c-6.933,0-12.586-5.617-12.586-12.586C61.358,182.167,67.011,176.511,73.944,176.511z"/>
					<path style="fill:#222051;" d="M252.095,18.694c15.492,0,28.078,12.625,28.078,28.078c0,15.492-12.586,28.078-28.078,28.078
						c-1.473,0-2.942-0.117-4.337-0.349l-43.221,77.262c3.408,4.646,5.421,10.341,5.421,16.538
						c0,15.492-12.586,28.078-28.078,28.078c-15.453,0-28.078-12.586-28.078-28.078c0-5.617,1.665-10.843,4.532-15.222
						l-24.901-22.191c-4.532,3.137-10.031,4.959-15.919,4.959c-2.284,0-4.493-0.27-6.624-0.814L93.037,168.61
						c5.5,5.112,8.986,12.433,8.986,20.487c0,15.492-12.586,28.078-28.078,28.078s-28.078-12.586-28.078-28.078
						c0-15.453,12.586-28.078,28.078-28.078c1.821,0,3.6,0.192,5.307,0.544l18.164-34.197c-4.92-5.073-7.979-11.967-7.979-19.597
						c0-15.453,12.586-28.078,28.078-28.078s28.078,12.625,28.078,28.078c0,3.988-0.853,7.744-2.323,11.152l26.84,23.934
						c3.6-1.665,7.591-2.633,11.775-2.633c3.639,0,7.086,0.697,10.263,1.974l41.517-74.28c-5.887-5.151-9.644-12.703-9.644-21.145
						C224.017,31.319,236.603,18.694,252.095,18.694z M264.681,46.772c0-6.933-5.656-12.586-12.586-12.586
						c-6.933,0-12.586,5.656-12.586,12.586c0,6.972,5.656,12.586,12.586,12.586C259.028,59.358,264.681,53.744,264.681,46.772z
						 M194.466,168.301c0-6.933-5.617-12.586-12.586-12.586c-6.933,0-12.586,5.656-12.586,12.586
						c0,6.933,5.656,12.586,12.586,12.586C188.853,180.887,194.466,175.234,194.466,168.301z M130.1,107.769
						c0-6.933-5.656-12.586-12.586-12.586c-6.933,0-12.586,5.653-12.586,12.586c0,6.972,5.656,12.586,12.586,12.586
						C124.447,120.355,130.1,114.738,130.1,107.769z M86.53,189.097c0-6.933-5.656-12.586-12.586-12.586
						c-6.933,0-12.586,5.656-12.586,12.586c0,6.972,5.656,12.586,12.586,12.586C80.877,201.686,86.53,196.069,86.53,189.097z"/>
					<path style="fill:#222051;" d="M33.281,4.753c0.349,0.27,0.658,0.619,0.968,0.929c0,0.039,0.039,0.078,0.078,0.078
						c0,0.039,0.039,0.039,0.039,0.078c0,0,0.039,0,0.039,0.039c20.024,23.856,20.604,24.748,20.913,25.172
						c2.362,3.564,1.394,8.367-2.17,10.729c-3.447,2.322-8.132,1.472-10.572-1.897c-0.544-0.736-3.137-3.835-6.428-7.823v208.705
						H246.83l-8.213-6.353c-3.369-2.633-3.988-7.474-1.355-10.882c2.594-3.369,7.474-3.988,10.843-1.355l26.103,20.216
						c0.466,0.388,0.89,0.853,1.277,1.316c0.078,0.117,0.156,0.192,0.231,0.31c0.388,0.541,0.697,1.124,0.929,1.704
						c0,0.078,0.078,0.117,0.078,0.156s0,0.078,0,0.078c0.231,0.697,0.388,1.355,0.427,2.053c0,0.156,0,0.31,0,0.466
						c0,0.697-0.039,1.394-0.231,2.092l-0.039,0.039c-0.156,0.658-0.466,1.238-0.814,1.821c-0.078,0.153-0.153,0.31-0.27,0.466
						c-0.078,0.117-0.153,0.27-0.231,0.388c-0.31,0.388-0.658,0.697-1.007,1.007c-0.078,0.078-0.117,0.156-0.156,0.192
						l-25.136,20.874c-1.473,1.202-3.216,1.782-4.956,1.782c-2.245,0-4.454-0.968-5.965-2.828c-2.75-3.291-2.284-8.171,1.007-10.882
						l8.637-7.164H28.4c-4.3,0-7.744-3.447-7.744-7.745V32.527l-6.894,8.481c-1.551,1.899-3.796,2.867-6.041,2.867
						c-1.704,0-3.447-0.58-4.881-1.743c-3.291-2.711-3.796-7.591-1.124-10.882L22.359,5.874c0.388-0.463,0.811-0.85,1.238-1.199
						c0.078-0.039,0.156-0.117,0.234-0.156c0.541-0.385,1.082-0.697,1.665-0.929c0.078-0.039,0.156-0.078,0.231-0.117
						c0.078-0.039,0.117,0,0.156-0.039c0.658-0.231,1.316-0.349,2.014-0.388c0.156,0,0.31,0,0.466,0
						c0.619,0,1.238,0.039,1.821,0.192c0.078,0.039,0.192,0.039,0.27,0.039c0.658,0.192,1.277,0.466,1.857,0.814
						c0.156,0.117,0.27,0.192,0.427,0.31C32.932,4.518,33.088,4.596,33.281,4.753z"/>
				</g>
			</g>
		</g>
	</g>
</g>
<g>
</g>
<g>
</g>
<g>
</g>
<g>
</g>
<g>
</g>
<g>
</g>
<g>
</g>
<g>
</g>
<g>
</g>
<g>
</g>
<g>
</g>
<g>
</g>
<g>
</g>
<g>
</g>
<g>
</g>
</svg>
